<svg xmlns="http://www.w3.org/2000/svg" viewBox="0 0 512 512">
  <defs>
    <linearGradient id="bg" x1="0%" y1="0%" x2="100%" y2="100%">
      <stop offset="0%" style="stop-color:#002447"/>
      <stop offset="100%" style="stop-color:#003d6b"/>
    </linearGradient>
  </defs>
  <rect width="512" height="512" rx="102" fill="url(#bg)"/>
  <!-- Three bells arranged in triangle -->
  <g fill="#ffc107" transform="translate(256, 240)">
    <!-- Top bell -->
    <g transform="translate(0, -80)">
      <ellipse cx="0" cy="45" rx="35" ry="12"/>
      <path d="M-30 45 Q-35 0 -20 -30 Q0 -50 20 -30 Q35 0 30 45 Z"/>
      <circle cx="0" cy="-35" r="8"/>
      <ellipse cx="0" cy="52" rx="8" ry="6"/>
    </g>
    <!-- Bottom left bell -->
    <g transform="translate(-70, 50)">
      <ellipse cx="0" cy="45" rx="35" ry="12"/>
      <path d="M-30 45 Q-35 0 -20 -30 Q0 -50 20 -30 Q35 0 30 45 Z"/>
      <circle cx="0" cy="-35" r="8"/>
      <ellipse cx="0" cy="52" rx="8" ry="6"/>
    </g>
    <!-- Bottom right bell -->
    <g transform="translate(70, 50)">
      <ellipse cx="0" cy="45" rx="35" ry="12"/>
      <path d="M-30 45 Q-35 0 -20 -30 Q0 -50 20 -30 Q35 0 30 45 Z"/>
      <circle cx="0" cy="-35" r="8"/>
      <ellipse cx="0" cy="52" rx="8" ry="6"/>
    </g>
  </g>
</svg>
